# xmcd
#
# Track frame offsets: 
#        150
#        24933
#        44825
#        61024
#        82278
#        100454
#        131728
#        159961
#        172246
#
# Disc length: 2644 seconds
#
# Revision: 0
# Processed by: cddbd v1.5.2PL0 Copyright (c) Steve Scherf et al.
# Submitted via: ExactAudioCopy v0.95a5
#
DISCID=7a0a5209
DTITLE=Kenny Burrell - Midnight Blue
DYEAR=1967
DGENRE=Bluesq
TTITLE0=Chitlins Con Carne
TTITLE1=Mule
TTITLE2=Soul Lament
TTITLE3=Midnight Blue
TTITLE4=Wavy Gravy
TTITLE5=Gee Baby, Ain't I Good to You
TTITLE6=Saturday Night Blues
TTITLE7=Kenny's Sound (Take 10)
TTITLE8=K Twist (Take 35)
EXTD=
EXTT0=
EXTT1=
EXTT2=
EXTT3=
EXTT4=
EXTT5=
EXTT6=
EXTT7=
EXTT8=
PLAYORDER=
